<svg width="123" height="123" viewBox="0 0 123 123" fill="none" xmlns="http://www.w3.org/2000/svg">
<circle cx="61.5" cy="61.5" r="61.5" fill="#6394D3"/>
<path fill-rule="evenodd" clip-rule="evenodd" d="M61.5 26C63.433 26 65 27.567 65 29.5V57.3305H58V29.5C58 27.567 59.567 26 61.5 26Z" fill="#FDFDFD" stroke="#486C9C" stroke-width="0.2"/>
<path fill-rule="evenodd" clip-rule="evenodd" d="M63.7571 54.6555C65.2344 55.902 65.4216 58.1102 64.175 59.5876L36.031 92.9435C34.7844 94.4209 32.5763 94.608 31.0989 93.3615C29.6215 92.1149 29.4344 89.9068 30.6809 88.4294L58.825 55.0735C60.0715 53.5961 62.2797 53.409 63.7571 54.6555Z" fill="#FDFDFD" stroke="#486C9C" stroke-width="0.2" stroke-linecap="round"/>
<path d="M61.2415 55.9518C62.0018 55.9521 62.6184 56.5694 62.6184 57.3298C62.6182 58.09 62.0016 58.7065 61.2415 58.7067C60.4811 58.7067 59.8638 58.0901 59.8635 57.3298C59.8635 56.5692 60.4809 55.9518 61.2415 55.9518Z" fill="#6394D3" stroke="#486C9C" stroke-width="0.2"/>
<path d="M60.8422 11.0996C63.2925 11.0997 65.2787 13.0868 65.2787 15.5371C65.2786 17.9874 63.2924 19.9735 60.8422 19.9736C58.3918 19.9736 56.4048 17.9874 56.4047 15.5371C56.4047 13.0867 58.3918 11.0996 60.8422 11.0996Z" fill="#FDFDFD" stroke="#486C9C" stroke-width="0.2"/>
</svg>
