<svg width="203" height="123" viewBox="0 0 203 123" fill="none" xmlns="http://www.w3.org/2000/svg">
<circle cx="61.5" cy="61.5" r="61.5" fill="#6394D3"/>
<path fill-rule="evenodd" clip-rule="evenodd" d="M96.5333 52.4877V67.6916H86.9284V52.4877H96.5333Z" fill="#FDFDFD" stroke="#486C9C" stroke-width="0.5"/>
<path fill-rule="evenodd" clip-rule="evenodd" d="M61.5 26C63.433 26 65 27.567 65 29.5V57.3305H58V29.5C58 27.567 59.567 26 61.5 26Z" fill="#FDFDFD" stroke="#486C9C" stroke-width="0.2"/>
<path fill-rule="evenodd" clip-rule="evenodd" d="M63.7571 54.6555C65.2344 55.902 65.4216 58.1102 64.175 59.5876L36.031 92.9435C34.7844 94.4209 32.5763 94.608 31.0989 93.3615C29.6215 92.1149 29.4344 89.9068 30.6809 88.4294L58.825 55.0735C60.0715 53.5961 62.2797 53.409 63.7571 54.6555Z" fill="#FDFDFD" stroke="#486C9C" stroke-width="0.2" stroke-linecap="round"/>
<path d="M62.6181 57.3293C62.6181 58.0899 62.0015 58.7064 61.241 58.7064C60.4805 58.7064 59.8639 58.0899 59.8639 57.3293C59.8639 56.5688 60.4805 55.9522 61.241 55.9522C62.0015 55.9522 62.6181 56.5688 62.6181 57.3293Z" fill="#6394D3" stroke="#486C9C" stroke-width="0.2"/>
<path d="M65.2789 15.5369C65.2789 17.9873 63.2924 19.9738 60.842 19.9738C58.3915 19.9738 56.4051 17.9873 56.4051 15.5369C56.4051 13.0865 58.3915 11.1 60.842 11.1C63.2924 11.1 65.2789 13.0865 65.2789 15.5369Z" fill="#FDFDFD" stroke="#486C9C" stroke-width="0.2"/>
<circle cx="112.722" cy="59.9877" r="4.43689" fill="#FDFDFD" stroke="#486C9C" stroke-width="0.2"/>
<mask id="path-8-outside-1_1_47" maskUnits="userSpaceOnUse" x="82.3051" y="63" width="117" height="37" fill="black">
<rect fill="white" x="82.3051" y="63" width="117" height="37"/>
<path d="M96.7771 99.648C93.4291 99.648 90.9451 98.856 89.3251 97.272C87.7051 95.688 86.8951 93.42 86.8951 90.468V63.576H96.6151V87.822C96.6151 88.83 96.7591 89.55 97.0471 89.982C97.3351 90.414 97.8211 90.63 98.5051 90.63C98.7931 90.63 99.1531 90.54 99.5851 90.36C100.017 90.18 100.359 90 100.611 89.82L103.905 96.84C103.077 97.56 101.997 98.208 100.665 98.784C99.3331 99.36 98.0371 99.648 96.7771 99.648ZM82.8451 80.1V72H102.177V80.1H82.8451ZM108.215 99V72H117.935V99H108.215ZM123.337 99V72H132.517L132.895 75.294C133.759 73.998 134.821 73.026 136.081 72.378C137.341 71.694 138.727 71.352 140.239 71.352C142.471 71.352 144.307 71.802 145.747 72.702C147.187 73.566 148.249 74.916 148.933 76.752C149.797 74.988 150.931 73.656 152.335 72.756C153.775 71.82 155.377 71.352 157.141 71.352C160.453 71.352 162.901 72.342 164.485 74.322C166.069 76.302 166.861 79.38 166.861 83.556V99H157.141V85.176C157.141 84.132 157.015 83.286 156.763 82.638C156.547 81.954 156.205 81.432 155.737 81.072C155.305 80.712 154.747 80.514 154.063 80.478C152.695 80.406 151.669 80.712 150.985 81.396C150.301 82.08 149.959 83.16 149.959 84.636V99H140.239V85.176C140.239 84.132 140.113 83.286 139.861 82.638C139.645 81.954 139.303 81.432 138.835 81.072C138.403 80.712 137.845 80.514 137.161 80.478C135.793 80.406 134.767 80.712 134.083 81.396C133.399 82.08 133.057 83.16 133.057 84.636V99H123.337ZM185.092 99.648C182.176 99.648 179.584 99.054 177.316 97.866C175.048 96.678 173.266 95.022 171.97 92.898C170.71 90.774 170.08 88.308 170.08 85.5C170.08 82.692 170.71 80.226 171.97 78.102C173.23 75.978 174.976 74.322 177.208 73.134C179.44 71.946 182.014 71.352 184.93 71.352C187.702 71.352 190.132 71.964 192.22 73.188C194.344 74.376 196 76.194 197.188 78.642C198.412 81.09 199.024 84.186 199.024 87.93H178.828L180.016 86.526C180.016 87.678 180.196 88.686 180.556 89.55C180.916 90.414 181.456 91.08 182.176 91.548C182.896 92.016 183.778 92.25 184.822 92.25C186.01 92.25 187.036 91.98 187.9 91.44C188.8 90.864 189.358 90.162 189.574 89.334L198.106 91.98C197.458 93.852 196.414 95.364 194.974 96.516C193.57 97.632 191.986 98.442 190.222 98.946C188.494 99.414 186.784 99.648 185.092 99.648ZM180.07 83.556L179.044 81.99H190.222L189.25 83.556C189.25 82.152 189.016 81.054 188.548 80.262C188.08 79.47 187.486 78.912 186.766 78.588C186.082 78.228 185.38 78.048 184.66 78.048C183.904 78.048 183.166 78.228 182.446 78.588C181.762 78.912 181.186 79.47 180.718 80.262C180.286 81.054 180.07 82.152 180.07 83.556Z"/>
</mask>
<path d="M96.7771 99.648C93.4291 99.648 90.9451 98.856 89.3251 97.272C87.7051 95.688 86.8951 93.42 86.8951 90.468V63.576H96.6151V87.822C96.6151 88.83 96.7591 89.55 97.0471 89.982C97.3351 90.414 97.8211 90.63 98.5051 90.63C98.7931 90.63 99.1531 90.54 99.5851 90.36C100.017 90.18 100.359 90 100.611 89.82L103.905 96.84C103.077 97.56 101.997 98.208 100.665 98.784C99.3331 99.36 98.0371 99.648 96.7771 99.648ZM82.8451 80.1V72H102.177V80.1H82.8451ZM108.215 99V72H117.935V99H108.215ZM123.337 99V72H132.517L132.895 75.294C133.759 73.998 134.821 73.026 136.081 72.378C137.341 71.694 138.727 71.352 140.239 71.352C142.471 71.352 144.307 71.802 145.747 72.702C147.187 73.566 148.249 74.916 148.933 76.752C149.797 74.988 150.931 73.656 152.335 72.756C153.775 71.82 155.377 71.352 157.141 71.352C160.453 71.352 162.901 72.342 164.485 74.322C166.069 76.302 166.861 79.38 166.861 83.556V99H157.141V85.176C157.141 84.132 157.015 83.286 156.763 82.638C156.547 81.954 156.205 81.432 155.737 81.072C155.305 80.712 154.747 80.514 154.063 80.478C152.695 80.406 151.669 80.712 150.985 81.396C150.301 82.08 149.959 83.16 149.959 84.636V99H140.239V85.176C140.239 84.132 140.113 83.286 139.861 82.638C139.645 81.954 139.303 81.432 138.835 81.072C138.403 80.712 137.845 80.514 137.161 80.478C135.793 80.406 134.767 80.712 134.083 81.396C133.399 82.08 133.057 83.16 133.057 84.636V99H123.337ZM185.092 99.648C182.176 99.648 179.584 99.054 177.316 97.866C175.048 96.678 173.266 95.022 171.97 92.898C170.71 90.774 170.08 88.308 170.08 85.5C170.08 82.692 170.71 80.226 171.97 78.102C173.23 75.978 174.976 74.322 177.208 73.134C179.44 71.946 182.014 71.352 184.93 71.352C187.702 71.352 190.132 71.964 192.22 73.188C194.344 74.376 196 76.194 197.188 78.642C198.412 81.09 199.024 84.186 199.024 87.93H178.828L180.016 86.526C180.016 87.678 180.196 88.686 180.556 89.55C180.916 90.414 181.456 91.08 182.176 91.548C182.896 92.016 183.778 92.25 184.822 92.25C186.01 92.25 187.036 91.98 187.9 91.44C188.8 90.864 189.358 90.162 189.574 89.334L198.106 91.98C197.458 93.852 196.414 95.364 194.974 96.516C193.57 97.632 191.986 98.442 190.222 98.946C188.494 99.414 186.784 99.648 185.092 99.648ZM180.07 83.556L179.044 81.99H190.222L189.25 83.556C189.25 82.152 189.016 81.054 188.548 80.262C188.08 79.47 187.486 78.912 186.766 78.588C186.082 78.228 185.38 78.048 184.66 78.048C183.904 78.048 183.166 78.228 182.446 78.588C181.762 78.912 181.186 79.47 180.718 80.262C180.286 81.054 180.07 82.152 180.07 83.556Z" fill="#FDFDFD"/>
<path d="M89.3251 97.272L89.4649 97.129L89.3251 97.272ZM86.8951 63.576V63.376H86.6951V63.576H86.8951ZM96.6151 63.576H96.8151V63.376H96.6151V63.576ZM97.0471 89.982L96.8807 90.0929V90.0929L97.0471 89.982ZM99.5851 90.36L99.5082 90.1754L99.5851 90.36ZM100.611 89.82L100.792 89.735L100.69 89.5177L100.495 89.6573L100.611 89.82ZM103.905 96.84L104.036 96.9909L104.15 96.8918L104.086 96.755L103.905 96.84ZM100.665 98.784L100.744 98.9676L100.665 98.784ZM82.8451 80.1H82.6451V80.3H82.8451V80.1ZM82.8451 72V71.8H82.6451V72H82.8451ZM102.177 72H102.377V71.8H102.177V72ZM102.177 80.1V80.3H102.377V80.1H102.177ZM96.7771 99.448C93.4566 99.448 91.033 98.6622 89.4649 97.129L89.1853 97.415C90.8572 99.0498 93.4016 99.848 96.7771 99.848V99.448ZM89.4649 97.129C87.8941 95.5931 87.0951 93.3832 87.0951 90.468H86.6951C86.6951 93.4568 87.5161 95.7829 89.1853 97.415L89.4649 97.129ZM87.0951 90.468V63.576H86.6951V90.468H87.0951ZM86.8951 63.776H96.6151V63.376H86.8951V63.776ZM96.4151 63.576V87.822H96.8151V63.576H96.4151ZM96.4151 87.822C96.4151 88.8383 96.5582 89.6093 96.8807 90.0929L97.2135 89.8711C96.9599 89.4907 96.8151 88.8217 96.8151 87.822H96.4151ZM96.8807 90.0929C97.2172 90.5977 97.7778 90.83 98.5051 90.83V90.43C97.8643 90.43 97.453 90.2303 97.2135 89.8711L96.8807 90.0929ZM98.5051 90.83C98.8309 90.83 99.219 90.7292 99.662 90.5446L99.5082 90.1754C99.0872 90.3508 98.7553 90.43 98.5051 90.43V90.83ZM99.662 90.5446C100.102 90.3614 100.459 90.1747 100.727 89.9827L100.495 89.6573C100.26 89.8253 99.9326 89.9986 99.5082 90.1754L99.662 90.5446ZM100.43 89.905L103.724 96.925L104.086 96.755L100.792 89.735L100.43 89.905ZM103.774 96.6891C102.965 97.392 101.905 98.0301 100.586 98.6004L100.744 98.9676C102.09 98.3859 103.189 97.728 104.036 96.9909L103.774 96.6891ZM100.586 98.6004C99.275 99.1672 98.0059 99.448 96.7771 99.448V99.848C98.0682 99.848 99.3912 99.5528 100.744 98.9676L100.586 98.6004ZM83.0451 80.1V72H82.6451V80.1H83.0451ZM82.8451 72.2H102.177V71.8H82.8451V72.2ZM101.977 72V80.1H102.377V72H101.977ZM102.177 79.9H82.8451V80.3H102.177V79.9ZM108.215 99H108.015V99.2H108.215V99ZM108.215 72V71.8H108.015V72H108.215ZM117.935 72H118.135V71.8H117.935V72ZM117.935 99V99.2H118.135V99H117.935ZM108.415 99V72H108.015V99H108.415ZM108.215 72.2H117.935V71.8H108.215V72.2ZM117.735 72V99H118.135V72H117.735ZM117.935 98.8H108.215V99.2H117.935V98.8ZM123.337 99H123.137V99.2H123.337V99ZM123.337 72V71.8H123.137V72H123.337ZM132.517 72L132.715 71.9772L132.695 71.8H132.517V72ZM132.895 75.294L132.696 75.3168L132.758 75.8592L133.061 75.4049L132.895 75.294ZM136.081 72.378L136.172 72.5559L136.176 72.5538L136.081 72.378ZM145.747 72.702L145.641 72.8716L145.644 72.8735L145.747 72.702ZM148.933 76.752L148.745 76.8218L148.908 77.2577L149.112 76.84L148.933 76.752ZM152.335 72.756L152.443 72.9244L152.444 72.9237L152.335 72.756ZM164.485 74.322L164.641 74.1971L164.485 74.322ZM166.861 99V99.2H167.061V99H166.861ZM157.141 99H156.941V99.2H157.141V99ZM156.763 82.638L156.572 82.6984L156.576 82.7105L156.763 82.638ZM155.737 81.072L155.609 81.2258L155.615 81.2305L155.737 81.072ZM154.063 80.478L154.073 80.2783L154.063 80.478ZM150.985 81.396L151.126 81.5374L150.985 81.396ZM149.959 99V99.2H150.159V99H149.959ZM140.239 99H140.039V99.2H140.239V99ZM139.861 82.638L139.67 82.6984L139.674 82.7105L139.861 82.638ZM138.835 81.072L138.707 81.2258L138.713 81.2305L138.835 81.072ZM137.161 80.478L137.171 80.2783L137.161 80.478ZM134.083 81.396L134.224 81.5374L134.083 81.396ZM133.057 99V99.2H133.257V99H133.057ZM123.537 99V72H123.137V99H123.537ZM123.337 72.2H132.517V71.8H123.337V72.2ZM132.318 72.0228L132.696 75.3168L133.093 75.2712L132.715 71.9772L132.318 72.0228ZM133.061 75.4049C133.908 74.1344 134.945 73.1868 136.172 72.5559L135.989 72.2001C134.696 72.8652 133.609 73.8616 132.728 75.1831L133.061 75.4049ZM136.176 72.5538C137.405 71.8865 138.758 71.552 140.239 71.552V71.152C138.695 71.152 137.276 71.5015 135.985 72.2022L136.176 72.5538ZM140.239 71.552C142.445 71.552 144.241 71.9968 145.641 72.8716L145.853 72.5324C144.372 71.6072 142.497 71.152 140.239 71.152V71.552ZM145.644 72.8735C147.039 73.7104 148.074 75.0209 148.745 76.8218L149.12 76.6822C148.423 74.8111 147.335 73.4216 145.85 72.5305L145.644 72.8735ZM149.112 76.84C149.963 75.1029 151.074 73.8014 152.443 72.9244L152.227 72.5876C150.787 73.5106 149.63 74.8731 148.753 76.664L149.112 76.84ZM152.444 72.9237C153.85 72.0094 155.414 71.552 157.141 71.552V71.152C155.339 71.152 153.699 71.6306 152.226 72.5883L152.444 72.9237ZM157.141 71.552C160.412 71.552 162.793 72.5281 164.328 74.4469L164.641 74.1971C163.008 72.1559 160.493 71.152 157.141 71.152V71.552ZM164.328 74.4469C165.871 76.3749 166.661 79.3983 166.661 83.556H167.061C167.061 79.3617 166.266 76.2291 164.641 74.1971L164.328 74.4469ZM166.661 83.556V99H167.061V83.556H166.661ZM166.861 98.8H157.141V99.2H166.861V98.8ZM157.341 99V85.176H156.941V99H157.341ZM157.341 85.176C157.341 84.1184 157.213 83.2452 156.949 82.5655L156.576 82.7105C156.816 83.3268 156.941 84.1456 156.941 85.176H157.341ZM156.953 82.5778C156.728 81.8633 156.365 81.3034 155.859 80.9135L155.615 81.2305C156.044 81.5606 156.366 82.0447 156.572 82.6982L156.953 82.5778ZM155.865 80.9184C155.393 80.5251 154.791 80.316 154.073 80.2783L154.052 80.6777C154.703 80.712 155.216 80.8989 155.609 81.2256L155.865 80.9184ZM154.073 80.2783C152.673 80.2046 151.582 80.5161 150.843 81.2546L151.126 81.5374C151.756 80.9079 152.717 80.6074 154.052 80.6777L154.073 80.2783ZM150.843 81.2546C150.106 81.9918 149.759 83.1343 149.759 84.636H150.159C150.159 83.1857 150.495 82.1682 151.126 81.5374L150.843 81.2546ZM149.759 84.636V99H150.159V84.636H149.759ZM149.959 98.8H140.239V99.2H149.959V98.8ZM140.439 99V85.176H140.039V99H140.439ZM140.439 85.176C140.439 84.1184 140.311 83.2452 140.047 82.5655L139.674 82.7105C139.914 83.3268 140.039 84.1456 140.039 85.176H140.439ZM140.051 82.5778C139.826 81.8633 139.463 81.3034 138.957 80.9135L138.713 81.2305C139.142 81.5606 139.464 82.0447 139.67 82.6982L140.051 82.5778ZM138.963 80.9184C138.491 80.5251 137.889 80.316 137.171 80.2783L137.15 80.6777C137.801 80.712 138.314 80.8989 138.707 81.2256L138.963 80.9184ZM137.171 80.2783C135.771 80.2046 134.68 80.5161 133.941 81.2546L134.224 81.5374C134.854 80.9079 135.815 80.6074 137.15 80.6777L137.171 80.2783ZM133.941 81.2546C133.204 81.9918 132.857 83.1343 132.857 84.636H133.257C133.257 83.1857 133.593 82.1682 134.224 81.5374L133.941 81.2546ZM132.857 84.636V99H133.257V84.636H132.857ZM133.057 98.8H123.337V99.2H133.057V98.8ZM177.316 97.866L177.409 97.6888L177.316 97.866ZM171.97 92.898L171.798 93L171.8 93.0022L171.97 92.898ZM171.97 78.102L171.798 78L171.97 78.102ZM177.208 73.134L177.114 72.9574L177.208 73.134ZM192.22 73.188L192.119 73.3606L192.123 73.3626L192.22 73.188ZM197.188 78.642L197.008 78.7293L197.01 78.7314L197.188 78.642ZM199.024 87.93V88.13H199.224V87.93H199.024ZM178.828 87.93L178.676 87.8008L178.397 88.13H178.828V87.93ZM180.016 86.526H180.216V85.98L179.864 86.3968L180.016 86.526ZM180.556 89.55L180.741 89.4731L180.556 89.55ZM182.176 91.548L182.285 91.3803L182.176 91.548ZM187.9 91.44L188.006 91.6096L188.008 91.6085L187.9 91.44ZM189.574 89.334L189.634 89.143L189.434 89.081L189.381 89.2835L189.574 89.334ZM198.106 91.98L198.295 92.0454L198.363 91.8502L198.166 91.789L198.106 91.98ZM194.974 96.516L195.099 96.6726L195.099 96.6722L194.974 96.516ZM190.222 98.946L190.275 99.1391L190.277 99.1383L190.222 98.946ZM180.07 83.556L179.903 83.6656L180.27 84.2262V83.556H180.07ZM179.044 81.99V81.79H178.674L178.877 82.0996L179.044 81.99ZM190.222 81.99L190.392 82.0955L190.582 81.79H190.222V81.99ZM189.25 83.556H189.05V84.2575L189.42 83.6615L189.25 83.556ZM188.548 80.262L188.376 80.3637L188.548 80.262ZM186.766 78.588L186.673 78.7653L186.684 78.7704L186.766 78.588ZM182.446 78.588L182.532 78.7688L182.536 78.7669L182.446 78.588ZM180.718 80.262L180.546 80.1602L180.543 80.1662L180.718 80.262ZM185.092 99.448C182.204 99.448 179.645 98.8599 177.409 97.6888L177.224 98.0432C179.524 99.2481 182.149 99.848 185.092 99.848V99.448ZM177.409 97.6888C175.172 96.5171 173.418 94.886 172.141 92.7938L171.8 93.0022C173.115 95.158 174.924 96.8389 177.224 98.0432L177.409 97.6888ZM172.142 92.796C170.903 90.7069 170.28 88.2771 170.28 85.5H169.88C169.88 88.3389 170.518 90.8411 171.798 93L172.142 92.796ZM170.28 85.5C170.28 82.7229 170.903 80.2931 172.142 78.204L171.798 78C170.518 80.1589 169.88 82.6611 169.88 85.5H170.28ZM172.142 78.204C173.383 76.1123 175.102 74.4818 177.302 73.3105L177.114 72.9574C174.851 74.1622 173.078 75.8437 171.798 78L172.142 78.204ZM177.302 73.3105C179.501 72.1402 182.042 71.552 184.93 71.552V71.152C181.987 71.152 179.38 71.7518 177.114 72.9574L177.302 73.3105ZM184.93 71.552C187.672 71.552 190.066 72.157 192.119 73.3605L192.322 73.0155C190.199 71.771 187.733 71.152 184.93 71.152V71.552ZM192.123 73.3626C194.207 74.5283 195.836 76.3136 197.008 78.7293L197.368 78.5547C196.165 76.0744 194.482 74.2237 192.318 73.0134L192.123 73.3626ZM197.01 78.7314C198.215 81.1434 198.824 84.2062 198.824 87.93H199.224C199.224 84.1658 198.609 81.0366 197.367 78.5526L197.01 78.7314ZM199.024 87.73H178.828V88.13H199.024V87.73ZM178.981 88.0592L180.169 86.6552L179.864 86.3968L178.676 87.8008L178.981 88.0592ZM179.816 86.526C179.816 87.6985 180 88.7336 180.372 89.6269L180.741 89.4731C180.393 88.6384 180.216 87.6575 180.216 86.526H179.816ZM180.372 89.6269C180.746 90.5246 181.311 91.2238 182.067 91.7157L182.285 91.3803C181.602 90.9362 181.087 90.3034 180.741 89.4731L180.372 89.6269ZM182.067 91.7157C182.826 92.2089 183.748 92.45 184.822 92.45V92.05C183.809 92.05 182.967 91.8231 182.285 91.3803L182.067 91.7157ZM184.822 92.45C186.042 92.45 187.106 92.1726 188.006 91.6096L187.794 91.2704C186.967 91.7874 185.979 92.05 184.822 92.05V92.45ZM188.008 91.6085C188.94 91.0124 189.536 90.2725 189.768 89.3845L189.381 89.2835C189.181 90.0515 188.661 90.7156 187.793 91.2715L188.008 91.6085ZM189.515 89.525L198.047 92.171L198.166 91.789L189.634 89.143L189.515 89.525ZM197.917 91.9146C197.281 93.7536 196.258 95.2332 194.849 96.3598L195.099 96.6722C196.571 95.4948 197.636 93.9504 198.295 92.0454L197.917 91.9146ZM194.85 96.3594C193.467 97.4587 191.907 98.2568 190.167 98.7537L190.277 99.1383C192.066 98.6272 193.674 97.8053 195.099 96.6726L194.85 96.3594ZM190.17 98.753C188.458 99.2166 186.766 99.448 185.092 99.448V99.848C186.803 99.848 188.531 99.6114 190.275 99.139L190.17 98.753ZM180.238 83.4464L179.212 81.8804L178.877 82.0996L179.903 83.6656L180.238 83.4464ZM179.044 82.19H190.222V81.79H179.044V82.19ZM190.052 81.8845L189.08 83.4505L189.42 83.6615L190.392 82.0955L190.052 81.8845ZM189.45 83.556C189.45 82.1336 189.214 80.9952 188.721 80.1603L188.376 80.3637C188.819 81.1128 189.05 82.1704 189.05 83.556H189.45ZM188.721 80.1603C188.235 79.3388 187.612 78.7492 186.848 78.4056L186.684 78.7704C187.361 79.0748 187.926 79.6012 188.376 80.3637L188.721 80.1603ZM186.86 78.411C186.149 78.037 185.415 77.848 184.66 77.848V78.248C185.346 78.248 186.016 78.419 186.673 78.765L186.86 78.411ZM184.66 77.848C183.871 77.848 183.103 78.0361 182.357 78.4091L182.536 78.7669C183.23 78.4198 183.937 78.248 184.66 78.248V77.848ZM182.361 78.4073C181.634 78.7517 181.03 79.3414 180.546 80.1603L180.891 80.3637C181.343 79.5986 181.891 79.0723 182.532 78.7687L182.361 78.4073ZM180.543 80.1662C180.088 80.9995 179.87 82.1354 179.87 83.556H180.27C180.27 82.1686 180.485 81.1085 180.894 80.3578L180.543 80.1662Z" fill="#486C9C" mask="url(#path-8-outside-1_1_47)"/>
<mask id="path-10-outside-2_1_47" maskUnits="userSpaceOnUse" x="69.5583" y="30.9437" width="28" height="29" fill="black">
<rect fill="white" x="69.5583" y="30.9437" width="28" height="29"/>
<path d="M69.9883 58.9437V31.9437H79.1683L79.7084 36.9117V58.9437H69.9883ZM86.8904 58.9437V45.1197H96.6104V58.9437H86.8904ZM86.8904 45.1197C86.8904 44.0757 86.7644 43.2297 86.5124 42.5817C86.2964 41.8977 85.9544 41.3757 85.4864 41.0157C85.0544 40.6557 84.4964 40.4577 83.8124 40.4217C82.4444 40.3497 81.4184 40.6557 80.7344 41.3397C80.0504 42.0237 79.7084 43.1037 79.7084 44.5797H77.0624C77.0624 41.7357 77.4944 39.3237 78.3583 37.3437C79.2223 35.3637 80.3924 33.8697 81.8684 32.8617C83.3444 31.8177 85.0184 31.2957 86.8904 31.2957C89.0864 31.2957 90.9044 31.7457 92.3444 32.6457C93.7844 33.5097 94.8464 34.8417 95.5303 36.6417C96.2504 38.4417 96.6104 40.7277 96.6104 43.4997V45.1197H86.8904Z"/>
</mask>
<path d="M69.9883 58.9437V31.9437H79.1683L79.7084 36.9117V58.9437H69.9883ZM86.8904 58.9437V45.1197H96.6104V58.9437H86.8904ZM86.8904 45.1197C86.8904 44.0757 86.7644 43.2297 86.5124 42.5817C86.2964 41.8977 85.9544 41.3757 85.4864 41.0157C85.0544 40.6557 84.4964 40.4577 83.8124 40.4217C82.4444 40.3497 81.4184 40.6557 80.7344 41.3397C80.0504 42.0237 79.7084 43.1037 79.7084 44.5797H77.0624C77.0624 41.7357 77.4944 39.3237 78.3583 37.3437C79.2223 35.3637 80.3924 33.8697 81.8684 32.8617C83.3444 31.8177 85.0184 31.2957 86.8904 31.2957C89.0864 31.2957 90.9044 31.7457 92.3444 32.6457C93.7844 33.5097 94.8464 34.8417 95.5303 36.6417C96.2504 38.4417 96.6104 40.7277 96.6104 43.4997V45.1197H86.8904Z" fill="#FDFDFD"/>
<path d="M69.9883 58.9437H69.7883V59.1437H69.9883V58.9437ZM69.9883 31.9437V31.7437H69.7883V31.9437H69.9883ZM79.1684 31.9437L79.3672 31.9221L79.3478 31.7437H79.1684V31.9437ZM79.7084 36.9117H79.9083V36.9009L79.9072 36.8901L79.7084 36.9117ZM79.7084 58.9437V59.1437H79.9083V58.9437H79.7084ZM86.8904 58.9437H86.6903V59.1437H86.8904V58.9437ZM86.8904 45.1197V44.9197H86.6903V45.1197H86.8904ZM96.6104 45.1197H96.8104V44.9197H96.6104V45.1197ZM96.6104 58.9437V59.1437H96.8104V58.9437H96.6104ZM86.8904 45.1197H86.6903V45.3197H86.8904V45.1197ZM86.5124 42.5817L86.3212 42.6421L86.3259 42.6542L86.5124 42.5817ZM85.4864 41.0157L85.3582 41.1695L85.3644 41.1742L85.4864 41.0157ZM83.8124 40.4217L83.8229 40.222L83.8124 40.4217ZM80.7344 41.3397L80.8758 41.4811H80.8758L80.7344 41.3397ZM79.7084 44.5797V44.7797H79.9083V44.5797H79.7084ZM77.0624 44.5797H76.8624V44.7797H77.0624V44.5797ZM78.3583 37.3437L78.175 37.2637L78.3583 37.3437ZM81.8684 32.8617L81.9812 33.0269L81.9838 33.025L81.8684 32.8617ZM92.3444 32.6457L92.2383 32.8154L92.2415 32.8172L92.3444 32.6457ZM95.5303 36.6417L95.3434 36.7128L95.3447 36.716L95.5303 36.6417ZM96.6104 45.1197V45.3197H96.8104V45.1197H96.6104ZM70.1883 58.9437V31.9437H69.7883V58.9437H70.1883ZM69.9883 32.1437H79.1684V31.7437H69.9883V32.1437ZM78.9695 31.9653L79.5095 36.9333L79.9072 36.8901L79.3672 31.9221L78.9695 31.9653ZM79.5084 36.9117V58.9437H79.9083V36.9117H79.5084ZM79.7084 58.7437H69.9883V59.1437H79.7084V58.7437ZM87.0904 58.9437V45.1197H86.6903V58.9437H87.0904ZM86.8904 45.3197H96.6104V44.9197H86.8904V45.3197ZM96.4104 45.1197V58.9437H96.8104V45.1197H96.4104ZM96.6104 58.7437H86.8904V59.1437H96.6104V58.7437ZM87.0904 45.1197C87.0904 44.0621 86.9631 43.1889 86.6988 42.5092L86.3259 42.6542C86.5656 43.2705 86.6903 44.0893 86.6903 45.1197H87.0904ZM86.7031 42.5215C86.4774 41.807 86.1152 41.2471 85.6083 40.8572L85.3644 41.1742C85.7935 41.5043 86.1153 41.9885 86.3216 42.642L86.7031 42.5215ZM85.6144 40.8621C85.1425 40.4688 84.5404 40.2598 83.8229 40.222L83.8018 40.6214C84.4523 40.6557 84.9662 40.8426 85.3583 41.1694L85.6144 40.8621ZM83.8229 40.222C82.4225 40.1483 81.3315 40.4598 80.5929 41.1983L80.8758 41.4811C81.5052 40.8517 82.4662 40.5512 83.8018 40.6214L83.8229 40.222ZM80.5929 41.1983C79.8557 41.9355 79.5084 43.0781 79.5084 44.5797H79.9083C79.9083 43.1294 80.245 42.1119 80.8758 41.4811L80.5929 41.1983ZM79.7084 44.3797H77.0624V44.7797H79.7084V44.3797ZM77.2624 44.5797C77.2624 41.755 77.6916 39.3719 78.5417 37.4237L78.175 37.2637C77.2971 39.2756 76.8624 41.7165 76.8624 44.5797H77.2624ZM78.5417 37.4237C79.3938 35.4709 80.5421 34.0096 81.9811 33.0269L81.7556 32.6966C80.2426 33.7298 79.0509 35.2565 78.175 37.2637L78.5417 37.4237ZM81.9838 33.025C83.4248 32.0058 85.0582 31.4957 86.8904 31.4957V31.0957C84.9785 31.0957 83.2639 31.6297 81.7529 32.6984L81.9838 33.025ZM86.8904 31.4957C89.0597 31.4957 90.8382 31.9402 92.2384 32.8153L92.4503 32.4761C90.9705 31.5512 89.113 31.0957 86.8904 31.0957V31.4957ZM92.2415 32.8172C93.6374 33.6548 94.6729 34.9483 95.3434 36.7128L95.7173 36.5707C95.0198 34.7352 93.9313 33.3646 92.4473 32.4742L92.2415 32.8172ZM95.3447 36.716C96.0521 38.4846 96.4104 40.7431 96.4104 43.4997H96.8104C96.8104 40.7123 96.4486 38.3989 95.716 36.5674L95.3447 36.716ZM96.4104 43.4997V45.1197H96.8104V43.4997H96.4104ZM96.6104 44.9197H86.8904V45.3197H96.6104V44.9197Z" fill="#486C9C" mask="url(#path-10-outside-2_1_47)"/>
<rect x="86.8945" y="55.8522" width="9.72418" height="13.1597" fill="#FDFDFD"/>
</svg>
